<svg width="22" height="24" viewBox="0 0 22 24" fill="none" xmlns="http://www.w3.org/2000/svg">
<path d="M12.6845 1.44255C12.7005 1.54075 12.7078 1.64014 12.7065 1.73957L12.7065 18.6711L12.8783 18.3019C13.0491 17.941 13.2815 17.6127 13.5651 17.3317L18.3132 12.5837C18.9101 11.9583 19.8704 11.8533 20.5884 12.3347C21.3536 12.895 21.5197 13.9694 20.9594 14.7347C20.9142 14.7965 20.8648 14.8552 20.8117 14.9105L12.2257 23.4964C11.5555 24.1674 10.4682 24.168 9.79725 23.4977L9.79591 23.4964L1.20997 14.9105C0.540321 14.2389 0.541822 13.1517 1.21335 12.482C1.26621 12.4293 1.32244 12.3801 1.38169 12.3347C2.09974 11.8533 3.06002 11.9583 3.65696 12.5837L8.41357 17.3231C8.66578 17.575 8.87726 17.8647 9.04034 18.1817L9.27216 18.6968L9.27216 1.83407C9.23959 0.956856 9.85236 0.187235 10.7146 0.0224385C11.6507 -0.129371 12.5327 0.506419 12.6845 1.44255Z" fill="#5F5F5F"/>
<path d="M12.6845 1.44255C12.7005 1.54075 12.7078 1.64014 12.7065 1.73957L12.7065 18.6711L12.8783 18.3019C13.0491 17.941 13.2815 17.6127 13.5651 17.3317L18.3132 12.5837C18.9101 11.9583 19.8704 11.8533 20.5884 12.3347C21.3536 12.895 21.5197 13.9694 20.9594 14.7347C20.9142 14.7965 20.8648 14.8552 20.8117 14.9105L12.2257 23.4964C11.5555 24.1674 10.4682 24.168 9.79725 23.4977L9.79591 23.4964L1.20997 14.9105C0.540321 14.2389 0.541822 13.1517 1.21335 12.482C1.26621 12.4293 1.32244 12.3801 1.38169 12.3347C2.09974 11.8533 3.06002 11.9583 3.65696 12.5837L8.41357 17.3231C8.66578 17.575 8.87726 17.8647 9.04034 18.1817L9.27216 18.6968L9.27216 1.83407C9.23959 0.956856 9.85236 0.187235 10.7146 0.0224385C11.6507 -0.129371 12.5327 0.506419 12.6845 1.44255Z" stroke="white"/>
</svg>
