<svg width="40" height="30" viewBox="0 0 40 30" fill="none" xmlns="http://www.w3.org/2000/svg">
<path d="M34.9448 0.349854H5.05522C2.26783 0.349854 0 2.61768 0 5.40507V24.5944C0 27.3818 2.26783 29.6496 5.05522 29.6496H34.9448C37.7322 29.6496 40 27.3818 40 24.5944V5.40507C40 2.61768 37.7322 0.349854 34.9448 0.349854ZM34.155 3.61072L20 14.5453L5.845 3.61072H34.155ZM34.9448 26.389H5.05522C4.06587 26.389 3.26087 25.584 3.26087 24.5946V5.73507L19.0033 17.8959C19.2967 18.1227 19.6485 18.2359 20 18.2359C20.3515 18.2359 20.7033 18.1227 20.9967 17.8959L36.7391 5.73507V24.5944C36.7391 25.584 35.9341 26.389 34.9448 26.389Z" fill="#555555"/>
</svg>
