<svg width="30" height="27" viewBox="0 0 30 27" fill="none" xmlns="http://www.w3.org/2000/svg">
<path d="M14.751 19.6509L14.7512 19.6505C15.0664 19.234 15.6381 19.1212 16.083 19.3751L14.751 19.6509ZM14.751 19.6509L13.1634 21.7613V17.3043L23.1335 8.47096C24.0634 7.64824 22.9958 6.18787 21.9341 6.81121C21.9341 6.81124 21.934 6.81128 21.934 6.81131L8.65679 14.5305L4.35407 12.3867L26.8046 3.63045M14.751 19.6509L26.8046 3.63045M26.8046 3.63045L22.8693 23.2403L16.0831 19.3752L26.8046 3.63045ZM9.21148 16.5881L14.0308 13.7864L11.4526 16.071L11.4525 16.0711C11.2319 16.267 11.1056 16.5468 11.1056 16.8418V24.8399C11.1056 25.8289 12.3665 26.2429 12.9575 25.4586L12.9575 25.4585L15.8512 21.6113L23.0883 25.7328C23.0883 25.7328 23.0883 25.7328 23.0884 25.7328C23.6932 26.0806 24.4664 25.7312 24.6062 25.0419L24.6062 25.0416L29.1918 2.19008L29.1918 2.18994C29.3521 1.38713 28.5543 0.730278 27.8082 1.02969C27.808 1.0298 27.8077 1.0299 27.8075 1.03L1.44176 11.3126L1.44167 11.3127C0.613141 11.6364 0.558967 12.7952 1.35669 13.1921C1.35673 13.1921 1.35676 13.1921 1.3568 13.1921L8.23443 16.6198L8.23497 16.6201C8.54532 16.7732 8.91273 16.7628 9.21128 16.5882C9.21134 16.5882 9.21141 16.5881 9.21148 16.5881Z" fill="#5F5F5F" stroke="#5F5F5F" stroke-width="0.3"/>
</svg>
