<svg width="22" height="24" viewBox="0 0 22 24" fill="none" xmlns="http://www.w3.org/2000/svg">
<path d="M12.6845 22.5574C12.7005 22.4592 12.7078 22.3599 12.7065 22.2604L12.7065 5.3289L12.8783 5.69809C13.0491 6.05897 13.2815 6.38727 13.5651 6.6683L18.3132 11.4163C18.9101 12.0417 19.8704 12.1467 20.5884 11.6653C21.3536 11.105 21.5197 10.0306 20.9594 9.26534C20.9142 9.20352 20.8648 9.14476 20.8117 9.08954L12.2257 0.503602C11.5555 -0.167389 10.4682 -0.16798 9.79725 0.50226L9.79591 0.503601L1.20997 9.08954C0.540321 9.76106 0.541822 10.8483 1.21335 11.518C1.26621 11.5707 1.32244 11.6199 1.38169 11.6653C2.09974 12.1467 3.06002 12.0416 3.65696 11.4163L8.41357 6.67689C8.66578 6.42495 8.87726 6.13528 9.04034 5.8183L9.27216 5.30314L9.27216 22.1659C9.23959 23.0431 9.85236 23.8128 10.7146 23.9776C11.6507 24.1294 12.5327 23.4936 12.6845 22.5574Z" fill="#5F5F5F"/>
<path d="M12.6845 22.5574C12.7005 22.4592 12.7078 22.3599 12.7065 22.2604L12.7065 5.3289L12.8783 5.69809C13.0491 6.05897 13.2815 6.38727 13.5651 6.6683L18.3132 11.4163C18.9101 12.0417 19.8704 12.1467 20.5884 11.6653C21.3536 11.105 21.5197 10.0306 20.9594 9.26534C20.9142 9.20352 20.8648 9.14476 20.8117 9.08954L12.2257 0.503602C11.5555 -0.167389 10.4682 -0.16798 9.79725 0.50226L9.79591 0.503601L1.20997 9.08954C0.540321 9.76106 0.541822 10.8483 1.21335 11.518C1.26621 11.5707 1.32244 11.6199 1.38169 11.6653C2.09974 12.1467 3.06002 12.0416 3.65696 11.4163L8.41357 6.67689C8.66578 6.42495 8.87726 6.13528 9.04034 5.8183L9.27216 5.30314L9.27216 22.1659C9.23959 23.0431 9.85236 23.8128 10.7146 23.9776C11.6507 24.1294 12.5327 23.4936 12.6845 22.5574Z" stroke="white"/>
</svg>
