<svg width="32" height="32" viewBox="0 0 32 32" fill="none" xmlns="http://www.w3.org/2000/svg">
<path d="M19.6961 30.0625V18.5725H22.5299C23.0782 18.5725 23.5406 18.1636 23.6087 17.6199L23.6087 17.6198L24.2312 12.6199C24.3125 11.973 23.8065 11.3975 23.1524 11.3975H19.7025C19.7291 10.6964 19.7145 10.1112 19.7025 9.62915L19.7021 9.6153C19.689 9.0897 19.6804 8.70203 19.7265 8.41147C19.7713 8.12875 19.8635 7.96689 20.0325 7.86424C20.2154 7.75315 20.513 7.695 21.0111 7.695H21.0201L21.0289 7.69394C21.3548 7.655 21.7321 7.66674 22.1254 7.68563C22.1784 7.68817 22.2317 7.69085 22.2852 7.69354C22.6232 7.71052 22.9677 7.72783 23.2802 7.71407C23.6395 7.69826 23.9839 7.64101 24.2412 7.4746C24.5121 7.2994 24.6661 7.01701 24.6661 6.6075V2.13625C24.6661 1.59245 24.2645 1.13284 23.7266 1.0589L23.7265 1.05889C23.327 1.00417 21.7689 0.85 19.8386 0.85C17.6187 0.85 16.0516 1.46609 14.9531 2.41758C13.8567 3.36723 13.2419 4.63819 12.9013 5.92297C12.5608 7.20746 12.492 8.51458 12.4937 9.54797C12.4945 9.98926 12.5082 10.3823 12.5193 10.7019C12.5212 10.7566 12.523 10.8092 12.5247 10.8594C12.5305 11.0322 12.5344 11.1764 12.5336 11.2898C12.5333 11.3311 12.5324 11.3665 12.5309 11.3963H9.51489C8.91455 11.3963 8.42739 11.8834 8.42739 12.4838V17.4837C8.42739 18.0841 8.91455 18.5712 9.51489 18.5712H12.5124V30.0613C12.5124 30.6615 12.9982 31.1487 13.5999 31.1488C13.5999 31.1488 13.5999 31.1488 13.5999 31.1488L18.6086 31.15H18.6086C19.2105 31.15 19.6961 30.6613 19.6961 30.0625ZM10.6024 13.5725H13.5999C14.2002 13.5725 14.6874 13.0853 14.6874 12.485V8.54625C14.6874 6.77005 15.1631 5.39364 16.0337 4.46227C16.9029 3.53235 18.1843 3.02625 19.8374 3.02625C20.8596 3.02625 21.8058 3.07309 22.4899 3.12394V5.55258C22.4894 5.55263 22.4889 5.55267 22.4884 5.55272C22.4362 5.55722 22.3688 5.55806 22.2856 5.55612C22.1839 5.55376 22.068 5.54763 21.9371 5.5407C21.8506 5.53612 21.7577 5.53119 21.658 5.52679C21.1659 5.50503 20.5445 5.49789 19.9352 5.62767C19.3246 5.75772 18.7159 6.02743 18.2611 6.56665C17.8057 7.10654 17.5199 7.89838 17.5199 9.0425V12.4862C17.5199 13.0866 18.0071 13.5737 18.6074 13.5737H21.92L21.5674 16.3988H18.6074C18.0071 16.3988 17.5199 16.8859 17.5199 17.4862V28.975H14.6886V17.485C14.6886 16.8847 14.2015 16.3975 13.6011 16.3975H10.6024V13.5725Z" fill="#5F5F5F" stroke="#5F5F5F" stroke-width="0.3"/>
</svg>
