<svg width="17" height="30" viewBox="0 0 17 30" fill="none" xmlns="http://www.w3.org/2000/svg">
<path d="M11.4745 28.1836V17.4211H14.1217C14.6405 17.4211 15.078 17.0342 15.1424 16.5198L15.1425 16.5197L15.726 11.8324C15.8029 11.2203 15.3242 10.6758 14.7053 10.6758H11.4808C11.5052 10.0226 11.4916 9.47692 11.4804 9.02721L11.4801 9.01411C11.4678 8.52101 11.4597 8.15857 11.5028 7.88723C11.5446 7.6237 11.6301 7.47502 11.7853 7.38073C11.9544 7.27802 12.2312 7.22344 12.6979 7.22344H12.7068L12.7157 7.22238C13.0203 7.18598 13.3733 7.19693 13.742 7.21464C13.7917 7.21703 13.8416 7.21954 13.8918 7.22205C14.2086 7.23798 14.5321 7.25423 14.8256 7.24131C15.1628 7.22647 15.4878 7.17273 15.7312 7.01531C15.9882 6.8491 16.1338 6.58117 16.1338 6.19453V2.00273C16.1338 1.48823 15.7538 1.05339 15.2449 0.983429L15.2448 0.983418C14.8698 0.932064 13.4087 0.7875 11.5987 0.7875C9.51569 0.7875 8.04417 1.36564 7.01232 2.25939C5.9826 3.1513 5.40548 4.34475 5.08587 5.55038C4.76633 6.75573 4.70179 7.98208 4.70346 8.95124C4.70418 9.36512 4.71701 9.7338 4.72744 10.0334C4.72922 10.0847 4.73093 10.1339 4.73251 10.181C4.73791 10.343 4.74156 10.478 4.74082 10.5841C4.74059 10.6188 4.73986 10.6488 4.73875 10.6746H1.92017C1.35217 10.6746 0.89126 11.1355 0.89126 11.7035V16.391C0.89126 16.959 1.35217 17.4199 1.92017 17.4199H4.72095V28.1824C4.72095 28.7503 5.18053 29.2113 5.74982 29.2113C5.74983 29.2113 5.74984 29.2113 5.74985 29.2113L10.4455 29.2125H10.4456C11.015 29.2125 11.4745 28.7502 11.4745 28.1836ZM2.94907 12.7336H5.74985C6.31785 12.7336 6.77876 12.2727 6.77876 11.7047V8.01211C6.77876 6.34853 7.22431 5.06072 8.03839 4.18978C8.85111 3.3203 10.0497 2.84648 11.5975 2.84648C12.5513 2.84648 13.4344 2.88999 14.0749 2.93739V5.19692C14.0274 5.20058 13.967 5.20122 13.8929 5.19949C13.7977 5.19728 13.6893 5.19154 13.5667 5.18505C13.4857 5.18076 13.3984 5.17614 13.3047 5.172C12.8432 5.15159 12.2597 5.14485 11.6873 5.26677C11.1135 5.38897 10.5407 5.64259 10.1126 6.15019C9.68388 6.65846 9.41548 7.40317 9.41548 8.47734V11.7059C9.41548 12.2739 9.87639 12.7348 10.4444 12.7348H13.5393L13.2112 15.3645H10.4444C9.87639 15.3645 9.41548 15.8254 9.41548 16.3934V27.1547H6.77993V16.3922C6.77993 15.8242 6.31903 15.3633 5.75103 15.3633H2.94907V12.7336Z" fill="#5F5F5F" stroke="#5F5F5F" stroke-width="0.3"/>
</svg>
