<svg width="100" height="98" viewBox="0 0 100 98" fill="none" xmlns="http://www.w3.org/2000/svg">
<path d="M18.4975 0.240234C23.5246 0.240234 28.0977 1.80684 31.4307 4.3373C34.8689 6.95605 36.9947 10.6045 36.9947 14.6629C36.9947 17.9238 35.6217 20.9137 33.2963 23.3275C31.0984 25.6086 28.0367 27.3691 24.4877 28.3104L19.6709 34.7881C19.0729 35.5908 17.8771 35.5631 17.3068 34.7658L12.5068 28.3104C8.95781 27.3691 5.89629 25.6086 3.69805 23.3275C1.37305 20.9135 0 17.9236 0 14.6627C0 10.6045 2.12598 6.95586 5.56973 4.33711C8.89707 1.80703 13.4703 0.240234 18.4975 0.240234ZM91.4127 17.5584H85.7158V41.0773H91.4127V17.5584ZM84.2486 14.6295H92.8744C93.6828 14.6295 94.3418 15.2828 94.3418 16.0912V42.5389C94.3418 43.3527 93.6828 44.0061 92.8744 44.0061H84.2486C83.4402 44.0061 82.7869 43.3527 82.7869 42.5389V16.0912C82.7869 15.2828 83.4404 14.6295 84.2486 14.6295ZM60.8848 28.1385V22.2977H55.1875V25.6195C57.2084 26.2229 59.1188 27.0756 60.8848 28.1385ZM52.2588 24.9385V20.8305C52.2588 20.0223 52.9176 19.3688 53.726 19.3688H62.352C63.1604 19.3688 63.8135 20.0223 63.8135 20.8305V30.2037C64.4557 30.7297 65.0703 31.2834 65.657 31.8701C66.3158 32.5291 66.9414 33.2266 67.5229 33.9574V10.4053C67.5229 9.59688 68.1762 8.93809 68.9844 8.93809H77.6158C78.4242 8.93809 79.0773 9.59688 79.0773 10.4053V42.5389C79.0773 43.3527 78.424 44.0061 77.6158 44.0061H72.3449C72.5553 44.9529 72.7158 45.9219 72.8154 46.9129H97.0711V3.16895H76.6195C75.8111 3.16895 75.1523 2.51562 75.1523 1.70742C75.1523 0.899219 75.8111 0.240234 76.6195 0.240234H98.5385C99.3469 0.240234 100 0.899024 100 1.70742V48.3744C100 49.1828 99.3467 49.8416 98.5385 49.8416H72.9432C72.9266 50.8549 72.8434 51.868 72.7051 52.8811C72.55 54.0328 72.3119 55.1512 72.0076 56.2307C71.7916 57.0057 70.9834 57.4598 70.2082 57.2439C69.4275 57.0225 68.9736 56.2197 69.1949 55.4391C69.4662 54.4758 69.6711 53.4902 69.8096 52.4936C69.9424 51.5191 70.0145 50.5115 70.0145 49.4652C70.0145 43.4027 67.5563 37.9162 63.5867 33.9408C59.6113 29.9713 54.1248 27.5129 48.0623 27.5129C43.7217 27.5129 39.6801 28.7697 36.2807 30.9346C32.7705 33.1713 29.9359 36.3879 28.1586 40.2027C27.8154 40.9391 26.9461 41.2547 26.2098 40.9113C25.4789 40.5736 25.1635 39.6988 25.5012 38.968C27.5109 34.6605 30.7223 31.0176 34.7139 28.4764C38.1908 26.2563 42.249 24.8832 46.6008 24.6285V1.70742C46.6008 0.899024 47.2541 0.240234 48.0623 0.240234H69.9812C70.7896 0.240234 71.4484 0.899024 71.4484 1.70742C71.4484 2.51582 70.7896 3.16895 69.9812 3.16895H49.5295V24.6283C50.4539 24.6783 51.3676 24.7834 52.2588 24.9385ZM71.4926 41.0773H76.149V11.8725H70.4518V38.5971C70.8449 39.3998 71.1881 40.2303 71.4926 41.0773ZM84.9961 64.0094C84.4258 64.5797 83.4957 64.5797 82.9254 64.0094C82.3551 63.4391 82.3551 62.509 82.9254 61.9387L87.5205 57.3434C87.7975 57.0664 88.1682 56.9061 88.5615 56.9061C88.9545 56.9061 89.3311 57.0666 89.6021 57.3434L94.1977 61.9387C94.7734 62.509 94.7734 63.4391 94.1977 64.0094C93.6273 64.5797 92.7029 64.5797 92.127 64.0094L90.0285 61.9111V74.966C90.0285 77.452 89.0098 79.7164 87.3709 81.3551C85.732 82.9939 83.4678 84.0125 80.9764 84.0125H66.2162C65.4078 84.0125 64.7488 83.3592 64.7488 82.5453C64.7488 81.7369 65.4078 81.0836 66.2162 81.0836H80.9764C82.6594 81.0836 84.1873 80.3916 85.3004 79.2844C86.4076 78.1769 87.0996 76.6434 87.0996 74.9658V61.9109L84.9961 64.0094ZM24.1336 78.8859C23.5578 78.3156 23.5578 77.3855 24.1336 76.8152C24.7039 76.2449 25.6283 76.2449 26.2041 76.8152L30.7994 81.4105C31.0762 81.6818 31.2313 82.0584 31.2313 82.4514C31.2313 82.85 31.0762 83.2209 30.7939 83.4977L26.2043 88.0875C25.6285 88.6633 24.7039 88.6633 24.1338 88.0875C23.558 87.5174 23.558 86.5926 24.1338 86.0168L26.232 83.9185H15.0039C12.5125 83.9185 10.2535 82.8998 8.61484 81.2611C6.97598 79.6223 5.95742 77.3578 5.95742 74.8664V32.684C5.95742 31.8758 6.61074 31.2168 7.41895 31.2168C8.22734 31.2168 8.88613 31.8758 8.88613 32.684V74.8664C8.88613 76.5496 9.57266 78.0775 10.6855 79.1904C11.7928 80.2977 13.3209 80.9896 15.0041 80.9896H26.232L24.1336 78.8859ZM12.0918 16.1299C11.2834 16.1299 10.6246 15.4711 10.6246 14.6627C10.6246 13.8543 11.2836 13.2012 12.0918 13.2012H24.9031C25.7115 13.2012 26.3703 13.8545 26.3703 14.6627C26.3703 15.4711 25.7113 16.1299 24.9031 16.1299H12.0918ZM12.0918 21.5613C11.2834 21.5613 10.6246 20.9023 10.6246 20.0941C10.6246 19.2857 11.2836 18.6324 12.0918 18.6324H21.6479C22.4562 18.6324 23.1094 19.2857 23.1094 20.0941C23.1094 20.9023 22.4561 21.5613 21.6479 21.5613H12.0918ZM12.0918 10.6984C11.2834 10.6984 10.6246 10.0451 10.6246 9.23691C10.6246 8.42305 11.2836 7.76973 12.0918 7.76973H24.9031C25.7115 7.76973 26.3703 8.42305 26.3703 9.23691C26.3703 10.0453 25.7113 10.6984 24.9031 10.6984H12.0918ZM49.5295 70.5647V76.9094H56.3615V70.7529C56.3615 70.1992 56.6826 69.6678 57.2197 69.424C59.1688 68.5272 60.9625 67.359 62.5516 65.9582C64.1514 64.5519 65.5412 62.9187 66.6818 61.1082C67.1082 60.4217 68.0106 60.217 68.6914 60.6486C69.3781 61.0805 69.5828 61.983 69.1512 62.6639C67.8666 64.7123 66.2889 66.5615 64.4783 68.1561C62.9113 69.5291 61.173 70.7084 59.2906 71.6607V78.3764V86.5262C59.2906 89.6322 58.0336 92.4391 56.0018 94.4709C53.9699 96.5029 51.1631 97.7596 48.0625 97.7596C44.9619 97.7596 42.1551 96.5027 40.1232 94.4709C38.0914 92.4391 36.8346 89.6322 36.8346 86.5262V78.3764V71.6607C32.8594 69.6453 29.4988 66.6004 27.107 62.8744C24.6268 58.9988 23.1873 54.398 23.1873 49.465C23.1873 48.8449 23.2094 48.2139 23.2594 47.5771C23.3037 46.9404 23.3756 46.3148 23.4697 45.7059C23.5859 44.9031 24.3334 44.3549 25.1307 44.4766C25.9334 44.5928 26.4814 45.3404 26.3652 46.1375C26.2822 46.6912 26.2156 47.2449 26.177 47.793C26.1326 48.3299 26.116 48.8893 26.116 49.465C26.116 53.8223 27.3838 57.8859 29.5709 61.2965C31.8131 64.79 35.0133 67.608 38.8002 69.3742C39.3648 69.5736 39.7635 70.1162 39.7635 70.7529V76.9094H46.601V70.5647L35.7715 49.382L35.3396 49.6311C34.6477 50.0408 33.7508 49.8082 33.3465 49.1105C32.9367 48.4186 33.1693 47.5215 33.867 47.1174L38.3516 44.493C38.8332 44.2105 39.4035 44.2328 39.852 44.5041L43.5779 46.6854L47.3262 44.493C47.8078 44.2105 48.3781 44.2328 48.8266 44.5041L52.5525 46.6854L56.3006 44.493C56.7824 44.2105 57.3527 44.2328 57.7955 44.5041L62.2635 47.1174C62.9611 47.5215 63.1938 48.4184 62.784 49.1105C62.3742 49.8082 61.483 50.0406 60.7854 49.6311L60.359 49.382L49.5295 70.5647ZM39.0875 47.4387L38.2959 47.9037L48.0621 67.0211L57.834 47.9037L57.0367 47.4387L53.3107 49.6201C52.8678 49.8914 52.292 49.9135 51.8104 49.6312L48.0621 47.4389L44.3359 49.6203C43.893 49.8916 43.3174 49.9137 42.8412 49.6314L39.0875 47.4387ZM53.9309 92.3949C55.1047 91.2213 55.9295 89.6986 56.234 87.9936H39.8959C40.1949 89.6986 41.0197 91.2213 42.1936 92.3949C43.6994 93.9008 45.7703 94.8311 48.0623 94.8311C50.3545 94.8311 52.4305 93.9008 53.9309 92.3949ZM39.7631 79.8438V85.0646H56.3613V79.8438H39.7631ZM29.6535 6.6625C26.8188 4.50313 22.877 3.16895 18.4975 3.16895C14.1182 3.16895 10.1762 4.50332 7.34141 6.6625C4.61738 8.73867 2.92871 11.5678 2.92871 14.6627C2.92871 17.132 3.99727 19.4295 5.80215 21.301C7.71777 23.2939 10.4582 24.8166 13.6473 25.5916C13.9961 25.658 14.3172 25.852 14.5441 26.1564L18.4973 31.4715L22.4559 26.1564C22.6496 25.8908 22.943 25.6914 23.2863 25.6084C26.5029 24.8332 29.2658 23.3053 31.1924 21.301C32.9973 19.4295 34.0658 17.132 34.0658 14.6627C34.066 11.5678 32.3775 8.73867 29.6535 6.6625Z" fill="#14AF1E"/>
</svg>
