<svg width="100" height="100" viewBox="0 0 100 100" fill="none" xmlns="http://www.w3.org/2000/svg">
<path d="M51.3055 54.5757C51.1205 54.5356 50.9307 54.5284 50.7433 54.5565C48.8651 54.3378 47.4483 52.7488 47.4451 50.8586C47.4451 49.9528 46.7106 49.2183 45.8048 49.2183C44.8989 49.2183 44.1645 49.9528 44.1645 50.8586C44.1693 54.015 46.2805 56.7798 49.324 57.6152V59.2555C49.324 60.1613 50.0585 60.8958 50.9643 60.8958C51.8701 60.8958 52.6046 60.1613 52.6046 59.2555V57.7145C56.1174 56.9792 58.505 53.7075 58.1358 50.1378C57.7657 46.5681 54.7583 43.8553 51.1693 43.8545C49.1126 43.8545 47.4451 42.187 47.4451 40.1302C47.4451 38.0735 49.1126 36.4059 51.1693 36.4059C53.2261 36.4059 54.8936 38.0735 54.8936 40.1302C54.8936 41.0361 55.6281 41.7705 56.5339 41.7705C57.4398 41.7705 58.1742 41.0361 58.1742 40.1302C58.1694 36.816 55.8475 33.9575 52.6046 33.2735V31.7806C52.6046 30.8748 51.8701 30.1403 50.9643 30.1403C50.0585 30.1403 49.324 30.8748 49.324 31.7806V33.3736C45.9393 34.2979 43.7608 37.5841 44.2269 41.0617C44.6931 44.5393 47.6605 47.1351 51.1693 47.1343C53.1989 47.1343 54.8544 48.7594 54.8912 50.7881C54.9289 52.8169 53.3334 54.502 51.3055 54.5757Z" fill="#14AF1E"/>
<path fill-rule="evenodd" clip-rule="evenodd" d="M51.1693 69.4063C38.0326 69.4063 27.3835 58.7573 27.3835 45.6205C27.3945 36.164 32.9166 27.9987 40.9109 24.1643L42.2062 27.1815C35.3789 30.5108 30.6733 37.5154 30.6641 45.6205C30.6641 56.9456 39.8443 66.1257 51.1693 66.1257C62.4943 66.1257 71.6745 56.9456 71.6745 45.6205C71.6745 34.2955 62.4943 25.1153 51.1693 25.1153C49.245 25.1175 47.3827 25.3844 45.6169 25.8816L44.8603 22.6868C46.8694 22.1336 48.9849 21.8371 51.1693 21.8347C64.306 21.8347 74.9551 32.4838 74.9551 45.6205C74.9551 58.7573 64.306 69.4063 51.1693 69.4063Z" fill="#14AF1E"/>
<path d="M83.0412 73.4501L70.192 79.5211C68.418 76.2213 65.0149 74.1213 61.2698 74.0156L49.4081 73.6896C47.53 73.636 45.687 73.1602 44.0171 72.2976L42.8101 71.6721C36.6302 68.4508 29.2641 68.4588 23.0906 71.6929L23.1659 68.9586C23.1907 68.0527 22.4771 67.2983 21.5713 67.2734L8.5643 66.9154C7.65846 66.8906 6.90479 67.6042 6.87996 68.5101L6.09426 97.0533C6.06943 97.9592 6.78305 98.7136 7.68889 98.7385L20.6959 99.0965H20.7407C21.6297 99.0965 22.357 98.3893 22.381 97.501L22.4187 96.1355L25.7977 94.3262C27.1241 93.6126 28.6747 93.4428 30.1235 93.8528L50.302 99.5162C50.3372 99.5266 50.3724 99.5346 50.4085 99.5426C51.867 99.8477 53.3535 100.001 54.8432 99.9999C57.9988 100.002 61.1176 99.3215 63.9857 98.0048C64.0562 97.9728 64.1243 97.9351 64.1891 97.8927L93.446 78.9685C94.1749 78.4968 94.4103 77.5397 93.9834 76.7836C91.8113 72.9295 86.9938 71.4615 83.0412 73.4501ZM9.41888 95.5043L10.1141 70.2401L19.8413 70.5076L19.1461 95.7726L9.41888 95.5043ZM62.508 95.075C58.9447 96.6833 54.9649 97.127 51.1349 96.3445L31.0109 90.6956C28.7459 90.0557 26.3215 90.3208 24.2496 91.4349L22.5228 92.3599L22.9849 75.5622C28.4568 71.9228 35.4745 71.5488 41.302 74.5851L42.509 75.2106C44.6186 76.2998 46.9453 76.9005 49.3184 76.9694L61.1809 77.2954C64.5127 77.3915 67.3424 79.7638 68.0183 83.0284L50.3492 82.5406C49.4434 82.5158 48.6897 83.2302 48.6641 84.1352C48.6392 85.0411 49.3537 85.7956 50.2587 85.8204L69.7579 86.357H69.8036C70.6918 86.3562 71.4183 85.649 71.4423 84.7616C71.4623 84.0487 71.4095 83.3351 71.2837 82.6335L84.4629 76.4064C84.4757 76.4007 84.4885 76.3943 84.5013 76.3879C86.3707 75.442 88.6309 75.7584 90.1686 77.1816L62.508 95.075Z" fill="#14AF1E"/>
<path d="M52.8095 17.223V1.64029C52.8095 0.734446 52.0751 0 51.1692 0C50.2634 0 49.5289 0.734446 49.5289 1.64029V17.223C49.5289 18.1289 50.2634 18.8633 51.1692 18.8633C52.0751 18.8633 52.8095 18.1289 52.8095 17.223Z" fill="#14AF1E"/>
<path d="M65.1115 17.223V9.8417C65.1115 8.93586 64.3771 8.20142 63.4712 8.20142C62.5654 8.20142 61.8309 8.93586 61.8309 9.8417V17.223C61.8309 18.1288 62.5654 18.8633 63.4712 18.8633C64.3771 18.8633 65.1115 18.1288 65.1115 17.223Z" fill="#14AF1E"/>
<path d="M40.5075 17.223V9.8417C40.5075 8.93586 39.7731 8.20142 38.8672 8.20142C37.9614 8.20142 37.2269 8.93586 37.2269 9.8417V17.223C37.2269 18.1288 37.9614 18.8633 38.8672 18.8633C39.7731 18.8633 40.5075 18.1288 40.5075 17.223Z" fill="#14AF1E"/>
</svg>
