<svg width="100" height="100" viewBox="0 0 100 100" fill="none" xmlns="http://www.w3.org/2000/svg">
<g clip-path="url(#clip0)">
<path d="M84.5999 31.3689L79.9048 25.6728C79.2601 24.8908 78.868 23.9447 78.7719 22.9369L78.0639 15.5891C77.6961 11.7713 74.6581 8.73332 70.8404 8.36559L63.4925 7.65834C62.4847 7.56145 61.5387 7.1693 60.7566 6.52538L55.0606 1.82951C52.1011 -0.609594 47.805 -0.609594 44.8456 1.82951L39.1495 6.52538C38.3683 7.1693 37.4222 7.56145 36.4136 7.65834L29.0658 8.36559C25.2481 8.73332 22.2108 11.7713 21.8423 15.5891L21.1351 22.9369C21.0382 23.9447 20.646 24.8908 20.0021 25.6728L15.3063 31.3689C12.8672 34.3283 12.8672 38.6244 15.3063 41.5838L20.0021 47.2799C20.646 48.0619 21.0382 49.008 21.1351 50.0158L21.8423 57.3636C22.2101 61.1814 25.2481 64.2186 29.0658 64.5871L33.5572 65.0197L22.886 90.5193C22.5969 91.2136 22.7273 91.9948 23.2271 92.5579C23.7268 93.1202 24.4859 93.3429 25.2076 93.1377L34.4659 90.5239C34.5063 90.5124 34.5452 90.53 34.5635 90.5628L39.1999 98.9932C39.5447 99.6211 40.1894 99.9995 40.8989 99.9995C40.9325 99.9995 40.9661 99.9988 41.0004 99.9973C41.7504 99.9591 42.3989 99.5059 42.6957 98.8071L53.9619 71.8831C54.3442 71.6633 54.7119 71.4108 55.0613 71.1232L60.7574 66.4281C61.4784 65.833 62.3413 65.4569 63.2621 65.3256L73.4664 89.7083L66.2452 87.6697C64.8719 87.2829 63.4338 87.8849 62.7449 89.1338L59.1293 95.708L54.3388 84.2602C54.0222 83.5041 53.154 83.1486 52.3979 83.4644C51.6426 83.7803 51.2863 84.6493 51.6029 85.4046L57.2143 98.8147C57.5081 99.5059 58.1558 99.9591 58.9065 99.9973C58.9409 99.9988 58.9744 100 59.008 100C59.7175 100 60.3622 99.6211 60.7071 98.9932L65.3427 90.5643C65.3617 90.53 65.4014 90.514 65.4403 90.5239L74.697 93.1377C75.4203 93.3422 76.1802 93.1202 76.6791 92.5579C77.1788 91.9948 77.3093 91.2143 77.0194 90.5178L66.349 65.0189L70.8404 64.5863C74.6581 64.2186 77.6961 61.1814 78.0639 57.3636L78.7719 50.015C78.868 49.0072 79.2601 48.0619 79.9048 47.2799L84.5999 41.5838C87.0398 38.6244 87.0398 34.3283 84.5999 31.3689ZM40.7776 95.708L37.1613 89.1323C36.4732 87.8841 35.0335 87.2822 33.661 87.6697L26.4405 89.7075L36.6441 65.3256C37.5657 65.4569 38.4286 65.833 39.1495 66.4273L44.8456 71.1232C46.3257 72.3431 48.1392 72.9527 49.9535 72.9527C50.0702 72.9527 50.1862 72.9497 50.3029 72.9443L40.7776 95.708ZM82.3119 39.6978L77.6168 45.3939C76.5944 46.6329 75.9734 48.1329 75.8193 49.7312L75.1121 57.0791C74.8801 59.4869 72.9644 61.4026 70.5566 61.6345L64.1021 62.2563C64.0769 62.2579 64.051 62.2602 64.0258 62.264L63.2087 62.3426C61.6096 62.4967 60.1097 63.1177 58.8707 64.1393L53.1746 68.8344C51.3084 70.3732 48.5985 70.3732 46.7324 68.8344L41.0363 64.1393C39.7973 63.1177 38.2973 62.4959 36.6982 62.3426L35.8773 62.2632C35.8544 62.2602 35.8323 62.2586 35.8094 62.2571L29.3504 61.6345C26.9426 61.4026 25.0268 59.4869 24.7949 57.0791L24.0877 49.732C23.9335 48.1329 23.3125 46.6329 22.2902 45.3939L17.5951 39.6978C16.0562 37.8309 16.0562 35.121 17.5951 33.2548L22.2902 27.5588C23.3125 26.3198 23.9335 24.8198 24.0877 23.2207L24.7949 15.8729C25.0268 13.4651 26.9426 11.5493 29.3504 11.3174L36.6982 10.6101C38.2973 10.456 39.7973 9.835 41.0363 8.81343L46.7324 4.11832C47.6654 3.34928 48.8098 2.964 49.9535 2.964C51.0971 2.964 52.2415 3.34852 53.1746 4.11832L58.8707 8.81343C60.1097 9.835 61.6096 10.4568 63.2087 10.6101L70.5566 11.3174C72.9644 11.5493 74.8801 13.4651 75.1121 15.8729L75.8193 23.2207C75.9734 24.8198 76.5944 26.3198 77.6168 27.5588L82.3119 33.2548C83.85 35.1218 83.85 37.8309 82.3119 39.6978Z" fill="#14AF1E"/>
<path d="M49.9535 13.3117C48.9632 13.3117 47.9668 13.3743 46.9902 13.4994C46.1785 13.6031 45.604 14.3462 45.7077 15.158C45.8115 15.9705 46.5554 16.5443 47.3664 16.4413C48.2178 16.3322 49.0883 16.2772 49.9535 16.2772C61.0916 16.2772 70.153 25.3386 70.153 36.4767C70.153 47.6148 61.0908 56.6754 49.9535 56.6754C38.8154 56.6754 29.754 47.6141 29.754 36.476C29.754 28.5315 34.4384 21.2951 41.6878 18.0396C42.4347 17.7047 42.7689 16.8266 42.4332 16.0796C42.0975 15.332 41.2194 14.9986 40.4732 15.3342C32.1595 19.0673 26.7885 27.3657 26.7885 36.476C26.7885 49.2498 37.1804 59.641 49.9535 59.641C62.7265 59.641 73.1185 49.2498 73.1185 36.476C73.1185 23.7029 62.7265 13.3117 49.9535 13.3117Z" fill="#14AF1E"/>
<path d="M35.2266 34.7587C33.4588 36.5264 33.4588 39.4034 35.2266 41.1712L41.7031 47.6485C42.5599 48.5045 43.6982 48.976 44.9098 48.976C46.1206 48.976 47.2596 48.5045 48.1164 47.6485L62.2544 33.5097C64.0222 31.7412 64.0222 28.865 62.2544 27.0965C60.4867 25.3287 57.6097 25.3287 55.8412 27.0965L44.9098 38.0286L41.6391 34.7587C39.8713 32.9909 36.9943 32.9909 35.2266 34.7587ZM44.9098 41.6091C45.3027 41.6091 45.6796 41.4527 45.9581 41.1742L57.9385 29.1938C58.5504 28.5819 59.5452 28.5827 60.1571 29.1938C60.769 29.8057 60.769 30.8013 60.1571 31.4124L46.0191 45.5512C45.7231 45.8472 45.3286 46.0105 44.9098 46.0105C44.4902 46.0105 44.0965 45.8472 43.8005 45.5512L37.3231 39.0746C36.712 38.4627 36.712 37.4671 37.3231 36.856C37.6291 36.55 38.0311 36.3967 38.4332 36.3967C38.8345 36.3967 39.2366 36.55 39.5417 36.8552L43.8607 41.1742C44.1392 41.4527 44.5161 41.6091 44.9098 41.6091Z" fill="#14AF1E"/>
</g>
<defs>
<clipPath id="clip0">
<rect width="100" height="100" fill="white"/>
</clipPath>
</defs>
</svg>
