<svg width="36" height="40" viewBox="0 0 36 40" fill="none" xmlns="http://www.w3.org/2000/svg">
<path d="M11.2246 25.9358C9.33686 26.2496 6.9101 26.8296 4.90088 27.7784C2.77496 28.7824 1.00891 30.2534 1.00891 32.3512C1.00891 33.1179 1.2612 34.0342 2.08272 34.9573C2.89967 35.8753 4.27046 36.7902 6.49194 37.5836C9.5946 38.6917 13.6817 39.2976 18 39.2976C22.0378 39.2976 26.2529 38.7287 29.4677 37.5961C31.0743 37.0302 32.4466 36.3181 33.4215 35.4531C34.3994 34.5854 34.9911 33.55 34.9911 32.3512C34.9911 30.2532 33.2271 28.7825 31.102 27.7786C29.0933 26.8298 26.6662 26.25 24.7752 25.9357C28.1459 20.6465 28.1714 20.6022 28.203 20.5628C28.2073 20.5575 28.2117 20.5522 28.2248 20.5337L11.2246 25.9358ZM11.2246 25.9358L7.83696 20.6201C6.28438 18.4685 5.4732 15.9053 5.4732 13.3036C5.4732 6.38383 11.1012 0.702393 18 0.702393C24.9213 0.702393 30.5268 6.39528 30.5268 13.3036C30.5268 15.9088 29.7308 18.4092 28.2252 20.533L11.2246 25.9358ZM10.1192 19.1175L10.119 19.1172C10.104 19.0938 10.0885 19.071 10.0722 19.0486L10.0721 19.0485C8.83544 17.3471 8.20534 15.3308 8.20534 13.3036C8.20534 7.85806 12.5898 3.43454 18 3.43454C23.3988 3.43454 27.7946 7.86022 27.7946 13.3036C27.7946 15.3328 27.1775 17.2789 26.0092 18.9348C26.0036 18.9421 25.9995 18.9472 25.9956 18.952C25.9603 18.9959 25.9501 19.0086 25.1034 20.3361C24.6241 21.0876 23.8761 22.2615 22.7037 24.1016C21.5753 25.8727 20.0536 28.2609 18 31.4834L10.1192 19.1175ZM18 36.5655C13.6328 36.5655 10.0341 35.9234 7.53546 35.0536C6.28482 34.6183 5.32024 34.1295 4.67369 33.6436C4.01372 33.1476 3.74105 32.6981 3.74105 32.3512C3.74105 32.1292 3.87392 31.8214 4.2316 31.4562C4.58438 31.096 5.13089 30.7066 5.89086 30.3244C7.38505 29.5731 9.67156 28.8666 12.8332 28.4598L16.8479 34.7595C17.0988 35.1531 17.5332 35.3914 17.9999 35.3914C18.4666 35.3914 18.9011 35.1531 19.1519 34.7595L23.1666 28.4598C26.3283 28.8666 28.6148 29.5731 30.109 30.3244C30.869 30.7066 31.4156 31.096 31.7683 31.4562C32.126 31.8214 32.2589 32.1292 32.2589 32.3512C32.2589 32.6944 31.989 33.1419 31.3331 33.6372C30.6905 34.1223 29.7308 34.6115 28.4835 35.0478C25.9914 35.9194 22.3929 36.5655 18 36.5655Z" fill="#5F5F5F" stroke="#5F5F5F" stroke-width="0.5"/>
</svg>
