<svg width="150" height="38" viewBox="0 0 150 38" fill="none" xmlns="http://www.w3.org/2000/svg">
<g clip-path="url(#clip0)">
<path d="M20.9403 35.05C26.8641 22.3762 16.4294 21.0173 7.87113 18.2392C-1.81789 15.0963 3.36936 4.38321 3.36936 4.38321C2.89425 7.58884 2.89425 10.5256 7.0624 13.3273C12.448 16.9463 18.5195 15.6502 23.7607 21.4093C28.7256 26.866 21.1204 34.8675 20.9403 35.0558C20.9403 35.0529 20.9403 35.0529 20.9403 35.05Z" fill="url(#paint0_linear)"/>
<path d="M20.9395 35.0488C20.9876 34.8513 21.7872 31.388 19.7336 28.3798V28.3765C19.2345 27.6433 18.5639 26.937 17.6705 26.3113C12.7538 22.8632 3.25441 23.5633 0.728206 17.385C-1.73451 11.3624 3.11291 4.72313 3.35939 4.39394C3.36271 4.39105 3.36561 4.38815 3.36561 4.38526C3.36852 4.38196 3.36852 4.38196 3.36852 4.38196C3.36852 4.38196 -1.81874 15.0951 7.87028 18.2383C16.4286 21.016 26.8633 22.375 20.9395 35.0488Z" fill="url(#paint1_linear)"/>
<path d="M26.2192 21.168C24.3819 11.131 17.5676 12.2297 11.0214 9.28144C4.30628 6.25507 5.9781 0.594724 6.15279 0.0590062C6.16151 0.0317453 6.16773 0.0168762 6.16773 0.0168762C6.02333 2.38485 7.35863 5.33316 16.6987 7.56029C27.0583 10.0295 26.8749 17.6625 26.2192 21.168Z" fill="url(#paint2_linear)"/>
<path d="M26.2192 21.1679C26.2192 21.1679 23.9337 16.6686 16.1846 14.5914C5.97809 11.8554 2.78466 8.82324 6.15279 0.0588684C5.9781 0.594586 4.30627 6.25493 11.0214 9.2813C17.5676 12.2296 24.3818 11.1309 26.2192 21.1679Z" fill="url(#paint3_linear)"/>
<path d="M18.1008 37.9645C20.2116 31.4719 13.0002 29.9333 7.04035 28.0056C1.23938 26.1287 0.572144 20.4176 0.572144 20.4176C3.62118 25.3563 9.61717 24.4972 15.8032 27.9098C20.1303 30.2955 19.8058 35.8092 18.1008 37.9645Z" fill="url(#paint4_linear)"/>
<path d="M18.1008 37.9645C18.1278 36.7791 18.4344 34.4982 8.7035 32.3281C-1.10005 30.1398 0.572191 20.4176 0.572191 20.4176C0.572191 20.4176 1.23943 26.1287 7.04039 28.0056C13.0003 29.9333 20.2117 31.4719 18.1008 37.9645Z" fill="url(#paint5_linear)"/>
</g>
<path d="M120.984 11.6934H119.817V12.7645H119.039V9.12567C119.687 9.12567 120.336 9.12027 120.984 9.12027C122.999 9.12027 123.005 11.6934 120.984 11.6934ZM119.817 11.065H120.984C121.979 11.065 121.974 9.77571 120.984 9.77571H119.817V11.065Z" fill="black"/>
<path d="M130.216 12.7642H129.291L128.089 11.5481H127.341V12.7642H126.562V9.12C127.217 9.12 127.871 9.12539 128.525 9.12539C129.497 9.13079 130.01 9.70227 130.01 10.3313C130.01 10.8302 129.75 11.3346 128.967 11.4749L130.216 12.7174V12.7642ZM127.341 9.76464V10.9292H128.525C129.02 10.9292 129.232 10.6378 129.232 10.3469C129.232 10.0561 129.014 9.76464 128.525 9.76464H127.341Z" fill="black"/>
<path d="M134.074 12.7649V9.1261H134.847V12.7649H134.074Z" fill="black"/>
<path d="M141.822 9.12H142.6V12.7642H142.117V12.7696L139.948 10.3109V12.7642H139.17V9.12539H139.801L141.822 11.3813V9.12Z" fill="black"/>
<path d="M147.913 9.74975H146.605V9.1261C147.795 9.1261 148.803 9.1261 150 9.1261V9.74975H148.691V12.7649H147.913V9.74975Z" fill="black"/>
<path d="M39.7381 24.7497C39.9121 24.7497 40.0814 24.682 40.2459 24.5452C40.4104 24.4085 40.4933 24.2628 40.4933 24.1093V13.6295C40.4933 13.4592 40.4104 13.2925 40.2459 13.13C40.0814 12.968 39.9019 12.8865 39.7088 12.8865H37.8788V9.6069H52.0542C52.422 9.6069 52.7945 9.68366 53.1725 9.83778C53.5498 9.99129 53.8938 10.1922 54.2031 10.4398C54.5131 10.6875 54.7653 10.9693 54.9583 11.2854C55.1521 11.6014 55.2493 11.9216 55.2493 12.246V15.167H51.7632V13.6037C51.7632 13.4334 51.6762 13.2673 51.5022 13.1042C51.3282 12.9423 51.1439 12.8613 50.9502 12.8613H44.7632V16.7298H50.9787V19.9842H44.7632V24.7497H51.3282C51.5403 24.7497 51.749 24.6688 51.9522 24.5069C52.1555 24.3444 52.2575 24.1693 52.2575 23.9816V22.444H55.7428V25.4675C55.7428 25.792 55.6361 26.1038 55.4233 26.4024C55.2099 26.7017 54.9393 26.9709 54.6103 27.2096C54.2806 27.4488 53.9223 27.6413 53.5355 27.7865C53.148 27.9316 52.77 28.0041 52.4023 28.0041H37.8788V24.7497H39.7381Z" fill="black"/>
<path d="M71.7477 22.2899V23.674C71.7477 24.1009 71.6172 24.5879 71.3562 25.1342C71.0945 25.6811 70.6832 26.1938 70.1216 26.6717C69.5594 27.1503 68.8436 27.5514 67.9714 27.8759C67.1006 28.2003 66.0448 28.3628 64.8055 28.3628C63.3534 28.3628 62.1624 28.1451 61.2331 27.7092C60.3031 27.2738 59.5771 26.7191 59.0543 26.0439C58.5316 25.3692 58.1685 24.6346 57.9653 23.8407C57.762 23.0461 57.66 22.2899 57.66 21.5727C57.66 20.4795 57.8001 19.4679 58.0815 18.5366C58.3616 17.6059 58.8028 16.8072 59.4031 16.1409C60.0033 15.4747 60.7681 14.9536 61.6981 14.5776C62.6274 14.2022 63.7498 14.0139 65.0673 14.0139C65.6478 14.0139 66.3256 14.0781 67.1006 14.2064C67.8749 14.3341 68.6111 14.565 69.3079 14.8978C70.0054 15.2312 70.5955 15.6966 71.0795 16.2945C71.5635 16.8929 71.8062 17.6611 71.8062 18.6002V19.9332H67.5941V18.6518C67.5941 18.2416 67.3766 17.8704 66.9408 17.537C66.505 17.2042 65.9476 17.0374 65.2705 17.0374H65.0673C64.4282 17.0374 63.9 17.1658 63.484 17.4218C63.0672 17.6779 62.7382 17.9981 62.4962 18.3831C62.2542 18.7669 62.0849 19.1897 61.9877 19.6508C61.8912 20.1125 61.8429 20.5569 61.8429 20.9833C61.8429 21.3593 61.8619 21.7994 61.9007 22.3031C61.9394 22.8069 62.0611 23.2896 62.2644 23.7507C62.4677 24.2119 62.777 24.6053 63.1937 24.9291C63.6097 25.2541 64.2053 25.416 64.9796 25.416C65.3868 25.416 65.7545 25.3567 66.0836 25.2367C66.4126 25.1174 66.6886 24.9675 66.9116 24.7882C67.1339 24.6089 67.3086 24.4128 67.4343 24.1993C67.5601 23.9858 67.6233 23.7765 67.6233 23.5714V22.2899H71.7477Z" fill="black"/>
<path d="M89.3499 21.1884C89.3499 22.4183 89.1323 23.4863 88.6966 24.3912C88.2608 25.2967 87.6796 26.0439 86.9535 26.6333C86.2275 27.2222 85.3893 27.6582 84.4409 27.94C83.4919 28.2219 82.4946 28.3628 81.4491 28.3628C80.4035 28.3628 79.4063 28.2219 78.4572 27.94C77.5082 27.6582 76.6707 27.2222 75.9447 26.6333C75.2186 26.0439 74.6381 25.2967 74.2016 24.3912C73.7666 23.4863 73.5483 22.4183 73.5483 21.1884C73.5483 19.9584 73.7666 18.8952 74.2016 17.9981C74.6381 17.1016 75.2186 16.3586 75.9447 15.7691C76.6707 15.1797 77.5082 14.7401 78.4572 14.4499C79.4063 14.1596 80.4035 14.0139 81.4491 14.0139C82.4946 14.0139 83.4919 14.1596 84.4409 14.4499C85.3893 14.7401 86.2275 15.1797 86.9535 15.7691C87.6796 16.3586 88.2608 17.1016 88.6966 17.9981C89.1323 18.8952 89.3499 19.9584 89.3499 21.1884ZM85.167 21.1884C85.167 20.762 85.1187 20.3044 85.0215 19.8175C84.925 19.3306 84.7462 18.8826 84.4844 18.4725C84.2234 18.0629 83.8454 17.7211 83.3519 17.4476C82.8577 17.1748 82.2234 17.0374 81.4491 17.0374C80.6544 17.0374 80.016 17.1748 79.532 17.4476C79.048 17.7211 78.6748 18.0629 78.4137 18.4725C78.1527 18.8826 77.9732 19.3306 77.8767 19.8175C77.7795 20.3044 77.7312 20.762 77.7312 21.1884C77.7312 21.6327 77.7795 22.0981 77.8767 22.585C77.9732 23.0719 78.1527 23.5199 78.4137 23.93C78.6748 24.3402 79.048 24.6778 79.532 24.9423C80.016 25.2073 80.6544 25.3393 81.4491 25.3393C82.2234 25.3393 82.8577 25.2073 83.3519 24.9423C83.8454 24.6778 84.2234 24.3402 84.4844 23.93C84.7462 23.5199 84.925 23.0719 85.0215 22.585C85.1187 22.0981 85.167 21.6327 85.167 21.1884Z" fill="black"/>
<path d="M95.7695 22.0854V23.6224C95.7695 23.93 95.8708 24.1909 96.0741 24.4043C96.2773 24.6178 96.5438 24.7929 96.8735 24.9291C97.2025 25.0664 97.5893 25.1641 98.0353 25.2241C98.4799 25.2841 98.9544 25.3134 99.4582 25.3134C99.9816 25.3134 100.499 25.2793 101.013 25.2115C101.525 25.1431 101.99 25.0232 102.406 24.8523C102.823 24.682 103.162 24.4421 103.423 24.1351C103.685 23.8275 103.815 23.4263 103.815 22.931C103.815 22.5724 103.723 22.2731 103.54 22.0339C103.355 21.7946 103.094 21.5943 102.755 21.4318C102.416 21.2699 102.014 21.129 101.55 21.009C101.085 20.8897 100.581 20.7698 100.039 20.6504L97.8028 20.1893C96.9503 20.0184 96.1278 19.8301 95.3337 19.6256C94.5397 19.4205 93.8382 19.1261 93.2277 18.7417C92.6179 18.3573 92.1244 17.8536 91.7464 17.2299C91.3684 16.6063 91.1801 15.7907 91.1801 14.7827C91.1801 14.4409 91.2236 14.0655 91.3106 13.6553C91.3976 13.2451 91.5479 12.8313 91.7613 12.4128C91.9734 11.9942 92.2692 11.584 92.6471 11.1829C93.0244 10.7817 93.5132 10.4315 94.1135 10.1322C94.7138 9.8336 95.4303 9.59013 96.263 9.40184C97.0958 9.21414 98.0734 9.12 99.1971 9.12C100.668 9.12 101.922 9.29989 102.958 9.6585C103.995 10.0171 104.832 10.4651 105.471 11.0036C106.11 11.5415 106.575 12.1267 106.865 12.7588C107.156 13.3908 107.301 13.9887 107.301 14.5524V16.0893H103.06V14.5776C103.06 14.3389 102.992 14.0871 102.857 13.822C102.721 13.5569 102.489 13.3093 102.16 13.079C101.83 12.8481 101.4 12.6604 100.867 12.5153C100.334 12.3702 99.6709 12.2976 98.8776 12.2976C98.4711 12.2976 98.0496 12.336 97.6138 12.4128C97.1781 12.4895 96.7858 12.6137 96.4377 12.7846C96.089 12.9549 95.8028 13.1816 95.5805 13.4634C95.3575 13.7452 95.2467 14.0906 95.2467 14.5008C95.2467 14.8594 95.3195 15.1539 95.4643 15.3847C95.6098 15.6156 95.7933 15.7991 96.0163 15.9358C96.2386 16.0726 96.4806 16.1751 96.7423 16.2435C97.004 16.3118 97.2406 16.3712 97.4541 16.4228L102.537 17.5243C103.254 17.6779 103.941 17.8662 104.6 18.088C105.258 18.3105 105.839 18.6092 106.343 18.9851C106.846 19.3605 107.247 19.8301 107.548 20.3938C107.848 20.9575 107.998 21.6495 107.998 22.4698C107.998 23.3921 107.838 24.1825 107.519 24.8397C107.2 25.4975 106.782 26.0486 106.27 26.4924C105.757 26.9368 105.19 27.2912 104.571 27.5556C103.95 27.8207 103.336 28.0209 102.726 28.1577C102.116 28.2944 101.55 28.3837 101.027 28.4269C100.504 28.4689 100.088 28.4911 99.7777 28.4911C98.3446 28.4911 97.0863 28.367 96.002 28.1193C94.917 27.8716 94.0163 27.5514 93.3004 27.1586C92.5832 26.7658 92.0462 26.3131 91.6879 25.8004C91.3297 25.2877 91.1509 24.7588 91.1509 24.2119V22.0854H95.7695Z" fill="black"/>
<path d="M115.608 14.3731H118.135V16.9349H115.608V23.1354C115.608 23.2728 115.618 23.4221 115.638 23.584C115.657 23.7465 115.72 23.9006 115.827 24.0451C115.933 24.1908 116.103 24.3144 116.334 24.4169C116.567 24.5195 116.886 24.5704 117.293 24.5704H118.049V28.1577C117.952 28.1577 117.845 28.1619 117.729 28.1708C117.612 28.1792 117.487 28.1834 117.351 28.1834C117.08 28.1834 116.789 28.1792 116.48 28.1708C116.17 28.1619 115.822 28.1577 115.434 28.1577C114.292 28.1577 113.358 27.7823 112.632 27.0303C111.905 26.2789 111.542 25.1857 111.542 23.7507V16.9349H109.451V14.3731H111.542V9.6069H115.608V14.3731Z" fill="black"/>
<path d="M135.825 24.2629C135.825 24.417 135.897 24.5663 136.043 24.7114C136.188 24.8571 136.348 24.9291 136.522 24.9291H137.567V28.0042H134.111C133.917 28.0042 133.699 27.9616 133.457 27.8759C133.215 27.7907 132.993 27.6708 132.789 27.5173C132.586 27.3631 132.416 27.1802 132.281 26.9662C132.145 26.7533 132.077 26.5176 132.077 26.2615V25.9029C131.613 26.6717 130.945 27.2738 130.073 27.7092C129.202 28.1451 128.253 28.3628 127.227 28.3628C126.181 28.3628 125.213 28.2219 124.322 27.94C123.431 27.6582 122.652 27.2222 121.984 26.6333C121.316 26.0439 120.793 25.2967 120.415 24.3912C120.038 23.4863 119.849 22.4183 119.849 21.1884C119.849 19.9584 120.067 18.8952 120.503 17.9981C120.938 17.1016 121.519 16.3586 122.245 15.7691C122.972 15.1797 123.809 14.7401 124.758 14.4499C125.706 14.1596 126.704 14.0139 127.75 14.0139C128.136 14.0139 128.543 14.0571 128.969 14.1422C129.395 14.228 129.802 14.3473 130.189 14.5008C130.577 14.6544 130.94 14.8385 131.279 15.0519C131.617 15.2654 131.893 15.4915 132.107 15.7308V14.5008H135.825V24.2629ZM131.468 21.1884C131.468 20.762 131.419 20.3044 131.323 19.8175C131.226 19.3306 131.047 18.8826 130.785 18.4725C130.523 18.0629 130.146 17.7211 129.652 17.4476C129.158 17.1748 128.524 17.0374 127.75 17.0374C126.956 17.0374 126.317 17.1748 125.833 17.4476C125.348 17.7211 124.976 18.0629 124.714 18.4725C124.453 18.8826 124.274 19.3306 124.177 19.8175C124.079 20.3044 124.032 20.762 124.032 21.1884C124.032 21.6327 124.079 22.0981 124.177 22.585C124.274 23.0719 124.453 23.5199 124.714 23.93C124.976 24.3402 125.348 24.6778 125.833 24.9423C126.317 25.2073 126.956 25.3393 127.75 25.3393C128.524 25.3393 129.158 25.2073 129.652 24.9423C130.146 24.6778 130.523 24.3402 130.785 23.93C131.047 23.5199 131.226 23.0719 131.323 22.585C131.419 22.0981 131.468 21.6327 131.468 21.1884Z" fill="black"/>
<path d="M141.024 18.139C141.024 17.9687 140.946 17.8104 140.792 17.6653C140.637 17.5202 140.462 17.4476 140.269 17.4476H139.281V14.3731H142.419C142.689 14.3731 142.975 14.4241 143.275 14.5266C143.575 14.6292 143.846 14.7701 144.089 14.9494C144.331 15.1287 144.529 15.3338 144.684 15.5641C144.839 15.7949 144.917 16.03 144.917 16.2687V16.7298H144.975C145.188 16.3886 145.411 16.0558 145.643 15.7308C145.875 15.4063 146.156 15.1155 146.485 14.8594C146.814 14.6034 147.197 14.3983 147.632 14.2448C148.069 14.0907 148.595 14.0139 149.215 14.0139C149.351 14.0139 149.482 14.0187 149.608 14.0271C149.733 14.0355 149.864 14.0487 150 14.0655V17.7037C149.826 17.6695 149.637 17.6527 149.433 17.6527C149.23 17.6527 149.031 17.6527 148.838 17.6527C148.043 17.6527 147.404 17.7511 146.921 17.9471C146.436 18.1438 146.059 18.3999 145.788 18.7159C145.517 19.0319 145.332 19.3821 145.237 19.7665C145.139 20.1509 145.091 20.5311 145.091 20.9065V28.0042H141.024V18.139Z" fill="black"/>
<defs>
<linearGradient id="paint0_linear" x1="-0.662887" y1="22.7341" x2="26.5104" y2="26.0676" gradientUnits="userSpaceOnUse">
<stop stop-color="#E8E854"/>
<stop offset="0.380392" stop-color="#82C801"/>
<stop offset="0.980392" stop-color="#146A25"/>
<stop offset="1" stop-color="#146A25"/>
</linearGradient>
<linearGradient id="paint1_linear" x1="0.0323395" y1="19.7154" x2="22.6773" y2="19.7154" gradientUnits="userSpaceOnUse">
<stop stop-color="#DDDF50"/>
<stop offset="0.380392" stop-color="#78B833"/>
<stop offset="0.980392" stop-color="#276634"/>
<stop offset="1" stop-color="#276634"/>
</linearGradient>
<linearGradient id="paint2_linear" x1="10.6031" y1="0.724419" x2="21.4446" y2="20.1552" gradientUnits="userSpaceOnUse">
<stop stop-color="#D2E2E7"/>
<stop offset="0.380392" stop-color="#6AC4CD"/>
<stop offset="0.988235" stop-color="#234758"/>
<stop offset="1" stop-color="#234758"/>
</linearGradient>
<linearGradient id="paint3_linear" x1="2.50623" y1="1.59911" x2="26.4592" y2="18.3162" gradientUnits="userSpaceOnUse">
<stop stop-color="#D2E2E7"/>
<stop offset="0.278431" stop-color="#6AC4CD"/>
<stop offset="0.988235" stop-color="#114254"/>
<stop offset="1" stop-color="#114254"/>
</linearGradient>
<linearGradient id="paint4_linear" x1="-1.38106" y1="24.4913" x2="16.6957" y2="33.4172" gradientUnits="userSpaceOnUse">
<stop stop-color="#FAE013"/>
<stop offset="0.0313725" stop-color="#FAE013"/>
<stop offset="0.580392" stop-color="#F17E00"/>
<stop offset="0.988235" stop-color="#D04001"/>
<stop offset="1" stop-color="#CC4621"/>
<stop offset="1" stop-color="#D04001"/>
</linearGradient>
<linearGradient id="paint5_linear" x1="0.463889" y1="29.191" x2="18.45" y2="28.8807" gradientUnits="userSpaceOnUse">
<stop stop-color="#FFED00"/>
<stop offset="0.0313725" stop-color="#FFED00"/>
<stop offset="0.580392" stop-color="#EF7F1A"/>
<stop offset="0.988235" stop-color="#CC4621"/>
<stop offset="1" stop-color="#CC4621"/>
</linearGradient>
<clipPath id="clip0">
<rect width="26.5152" height="38" fill="white"/>
</clipPath>
</defs>
</svg>
