<svg width="40" height="40" viewBox="0 0 40 40" fill="none" xmlns="http://www.w3.org/2000/svg">
<path d="M35.2021 34.207C36.0378 33.3385 36.5019 32.2979 36.5019 31.2053C36.5019 30.1021 36.0276 29.0658 35.1709 28.2184C35.1706 28.218 35.1702 28.2176 35.1698 28.2173L30.9558 23.994C30.1309 23.1379 29.1078 22.6544 28.0008 22.6544C26.9022 22.6544 25.8733 23.1295 25.0191 23.9823C25.0191 23.9824 25.019 23.9825 25.0189 23.9825L22.8504 26.1411C22.8237 26.1274 22.7972 26.1138 22.771 26.1004C22.7056 26.0669 22.6422 26.0344 22.5821 26.0032L22.5821 26.0031L22.575 25.9996C22.2939 25.8592 22.0553 25.7396 21.8561 25.6164C19.6349 24.2073 17.6079 22.3665 15.6549 19.9708C14.8157 18.9113 14.2319 18.014 13.7984 17.1323C14.2767 16.6823 14.729 16.2239 15.1634 15.7837C15.2184 15.7279 15.2731 15.6725 15.3276 15.6173C15.4363 15.5088 15.5448 15.3985 15.6515 15.2901L15.6523 15.2892C15.7602 15.1796 15.8663 15.0718 15.972 14.9662C16.8569 14.0826 17.3293 13.0356 17.3293 11.9569C17.3293 10.8782 16.8569 9.83114 15.972 8.94761L13.8738 6.85239C13.6345 6.61343 13.3943 6.37356 13.1702 6.13486L13.1702 6.13481L13.1647 6.12912C12.7043 5.654 12.2141 5.15654 11.7059 4.68772C10.8802 3.87455 9.86881 3.42139 8.78591 3.42139C7.70161 3.42139 6.67478 3.87564 5.82668 4.68864L5.82661 4.68856L5.81939 4.69577L5.80401 4.71113L5.80401 4.71112L5.80247 4.71268L3.19002 7.34434C2.12367 8.40948 1.5115 9.71609 1.37818 11.2221L1.37817 11.2221L1.37792 11.2251C1.18408 13.58 1.87828 15.7533 2.39131 17.1349C3.6596 20.5512 5.55169 23.7079 8.35562 27.0739L8.3567 27.0752C11.7676 31.1421 15.8742 34.3563 20.5664 36.6212L20.5698 36.6228C22.3495 37.465 24.7803 38.4901 27.5154 38.6653L27.5154 38.6654L27.5236 38.6658C27.6834 38.6734 27.8641 38.6817 28.0316 38.6817C29.9409 38.6817 31.5671 37.9905 32.8339 36.6174L32.8818 36.5654L32.8877 36.5536C32.8911 36.5492 32.8947 36.5445 32.8983 36.5395C33.2459 36.1218 33.6436 35.7377 34.0868 35.3097C34.1204 35.2773 34.1542 35.2446 34.1882 35.2117C34.521 34.8949 34.8647 34.5595 35.2021 34.207ZM35.2021 34.207C35.2019 34.2072 35.2017 34.2073 35.2016 34.2075L34.8413 33.8608L35.2026 34.2065C35.2024 34.2066 35.2022 34.2068 35.2021 34.207ZM20.2014 28.2049C17.6882 26.6179 15.4173 24.552 13.2719 21.9166L13.2615 21.9063L13.2432 21.8831C12.056 20.3778 11.2595 19.0947 10.6911 17.7198L10.6844 17.7037L10.6789 17.6871L10.6674 17.6526L10.6559 17.618L10.6533 17.6105L10.6534 17.6105C10.5769 17.3685 10.4868 17.0176 10.5335 16.6145C10.5808 16.2072 10.7623 15.7881 11.1497 15.3909C11.1808 15.353 11.2089 15.3289 11.221 15.3185L11.2284 15.3123L11.2347 15.3066C11.8907 14.7194 12.4963 14.1149 13.14 13.4569L13.1451 13.4517L13.1504 13.4466C13.2947 13.3074 13.4324 13.1683 13.5757 13.0235C13.6501 12.9484 13.726 12.8717 13.8051 12.7927C14.165 12.4333 14.2694 12.1619 14.2694 11.9569C14.2694 11.7519 14.165 11.4805 13.8051 11.1211L11.7068 9.02589L11.7014 9.02046L11.7014 9.02042C11.5808 8.89615 11.4599 8.77354 11.3384 8.65033L11.3361 8.64802C11.2143 8.52449 11.0919 8.40027 10.9711 8.27579L10.971 8.2757C10.5031 7.79316 10.0646 7.34787 9.60539 6.91942L9.5992 6.91364L9.59321 6.90766L9.57016 6.88464L9.57014 6.88463C9.35538 6.67018 9.08513 6.49358 8.80129 6.49358C8.57899 6.49358 8.29756 6.60267 7.98048 6.89813L5.3654 9.50941C4.81136 10.0626 4.51665 10.6965 4.44969 11.4768C4.34257 12.7838 4.58174 14.1959 5.28058 16.0643L5.28111 16.0657C6.41809 19.1333 8.13781 22.0012 10.73 25.1211C13.8594 28.851 17.6227 31.7916 21.9072 33.8629C23.4869 34.6173 25.5356 35.4711 27.7176 35.6105L27.7189 35.6106C27.8147 35.617 27.9207 35.6171 28.0393 35.6171C29.102 35.6171 29.8805 35.2812 30.5563 34.5635C31.0474 33.9872 31.5666 33.4772 32.0657 33.0018C32.126 32.943 32.1849 32.8858 32.2427 32.8296C32.4933 32.5864 32.7222 32.364 32.9469 32.1249C32.947 32.1247 32.9472 32.1245 32.9474 32.1243C32.9702 32.0943 32.9948 32.0691 33.0192 32.0481C33.3355 31.7102 33.4378 31.4336 33.4373 31.2142C33.4367 30.9905 33.329 30.7131 32.991 30.3789L32.9893 30.3772L28.7544 26.1484L28.7543 26.1484L28.7389 26.133L28.7308 26.1249L28.723 26.1163C28.5216 25.8958 28.254 25.7189 27.9855 25.7189C27.7086 25.7189 27.417 25.9098 27.1782 26.1484L24.5496 28.7731L24.5446 28.7781C24.398 28.9246 23.8734 29.4489 23.028 29.4489C22.687 29.4489 22.365 29.3648 22.0437 29.2044C22.0217 29.1933 22.0029 29.1826 21.989 29.1744C21.9756 29.1664 21.9631 29.1586 21.9563 29.1543L21.9451 29.1474L21.931 29.1404L21.9115 29.1283C21.7119 29.0046 21.4727 28.8847 21.1906 28.7439L21.182 28.7396C20.8797 28.5887 20.5379 28.418 20.2014 28.2049ZM20.2014 28.2049C20.2013 28.2049 20.2012 28.2048 20.2011 28.2048L20.4686 27.7823L20.2016 28.2051C20.2015 28.205 20.2014 28.205 20.2014 28.2049ZM32.8351 36.6129L32.8381 36.6098C32.8353 36.6127 32.833 36.615 32.8351 36.6129Z" fill="#5F5F5F" stroke="#5F5F5F"/>
<path d="M21.4985 10.468L21.4158 10.9611C23.3249 11.2812 25.0602 12.1831 26.4485 13.5694C27.8357 14.9545 28.732 16.6868 29.0604 18.5948C29.1872 19.35 29.8407 19.8707 30.5756 19.8707C30.6647 19.8707 30.7455 19.8603 30.7972 19.8537C30.8033 19.8529 30.8091 19.8522 30.8143 19.8515L30.8233 19.8504L30.8323 19.8489C31.6811 19.7115 32.2344 18.9112 32.0991 18.078L32.0991 18.078L32.0984 18.074C31.6658 15.5379 30.4635 13.2259 28.6308 11.3958C26.7981 9.56582 24.483 8.3655 21.9436 7.93355L21.9436 7.93353L21.9397 7.9329C21.1036 7.79752 20.3167 8.35166 20.1685 9.18291C20.0214 10.0076 20.5638 10.8231 21.4186 10.9615L21.4985 10.468ZM21.4985 10.468C23.5122 10.8057 25.3415 11.7573 26.8018 13.2155C28.2621 14.6738 29.2075 16.5004 29.5534 18.5111L21.8597 8.42647C21.291 8.33437 20.7606 8.71044 20.6607 9.2707C20.5608 9.83096 20.9297 10.3759 21.4985 10.468Z" fill="#5F5F5F" stroke="#5F5F5F"/>
<path d="M20.4605 2.59035L20.4604 2.59034L20.4592 2.59799C20.323 3.43676 20.8819 4.22095 21.7195 4.36789L21.7195 4.3679L21.7224 4.36839C25.2003 4.95714 28.3731 6.6038 30.8989 9.11836C33.4237 11.6396 35.0651 14.8069 35.6548 18.2796C35.7813 19.0351 36.4349 19.5561 37.1701 19.5561C37.2592 19.5561 37.34 19.5458 37.3917 19.5391C37.3978 19.5383 37.4036 19.5376 37.4088 19.5369L37.4088 19.5371L37.4213 19.5352C38.2615 19.4088 38.8328 18.6082 38.6849 17.773C37.983 13.6644 36.0432 9.92553 33.0655 6.95223C30.0879 3.9789 26.3437 2.04204 22.2296 1.34127C21.3879 1.19275 20.607 1.7687 20.4605 2.59035Z" fill="#5F5F5F" stroke="#5F5F5F"/>
</svg>
