<svg width="32" height="32" viewBox="0 0 32 32" fill="none" xmlns="http://www.w3.org/2000/svg">
<path d="M15.048 15.713L9.8206 18.752C9.82057 18.752 9.82054 18.752 9.82051 18.752C9.50498 18.9366 9.11659 18.9477 8.78846 18.7858L8.78792 18.7855L1.45178 15.1293L15.048 15.713ZM15.048 15.713L12.2228 18.2165L12.2227 18.2166C11.9896 18.4237 11.8561 18.7194 11.8561 19.0312V27.5625C11.8561 28.6078 13.1888 29.0455 13.8134 28.2165L13.8135 28.2164L16.9053 24.1057L24.6326 28.5063C24.6327 28.5063 24.6328 28.5064 24.6329 28.5065C25.2721 28.8737 26.0891 28.5045 26.2368 27.7761L26.2369 27.7758L31.1282 3.40075L31.1282 3.40061C31.2976 2.55201 30.4543 1.85782 29.6659 2.17427C29.6656 2.17438 29.6654 2.17448 29.6651 2.17458L1.54158 13.1427L1.54149 13.1428C0.665777 13.4849 0.608556 14.7098 1.45167 15.1292L15.048 15.713ZM15.7425 22.0336L15.7427 22.0332C16.0758 21.5929 16.6801 21.4738 17.1503 21.7422L15.7425 22.0336ZM15.7425 22.0336L14.0311 24.3086V19.52L24.6692 10.0948C25.652 9.22532 24.5236 7.68175 23.4015 8.34056C23.4015 8.34059 23.4014 8.34062 23.4014 8.34065L9.23435 16.5772L4.61976 14.278L28.605 4.92316M15.7425 22.0336L28.605 4.92316M28.605 4.92316L24.4011 25.8719L17.1505 21.7422L28.605 4.92316Z" fill="#5F5F5F" stroke="#5F5F5F" stroke-width="0.3"/>
</svg>
