<svg width="27" height="38" viewBox="0 0 27 38" fill="none" xmlns="http://www.w3.org/2000/svg">
<path d="M20.9403 35.05C26.8641 22.3762 16.4294 21.0173 7.87113 18.2392C-1.81789 15.0963 3.36936 4.38321 3.36936 4.38321C2.89425 7.58884 2.89425 10.5256 7.0624 13.3273C12.448 16.9463 18.5195 15.6502 23.7607 21.4093C28.7256 26.866 21.1204 34.8675 20.9403 35.0558C20.9403 35.0529 20.9403 35.0529 20.9403 35.05Z" fill="url(#paint0_linear)"/>
<path d="M20.9395 35.0488C20.9876 34.8513 21.7872 31.388 19.7336 28.3798V28.3765C19.2345 27.6433 18.5639 26.937 17.6705 26.3113C12.7538 22.8632 3.25441 23.5633 0.728206 17.385C-1.73451 11.3624 3.11291 4.72313 3.35939 4.39394C3.36271 4.39105 3.36561 4.38815 3.36561 4.38526C3.36852 4.38196 3.36852 4.38196 3.36852 4.38196C3.36852 4.38196 -1.81874 15.0951 7.87028 18.2383C16.4286 21.016 26.8633 22.375 20.9395 35.0488Z" fill="url(#paint1_linear)"/>
<path d="M26.2192 21.168C24.3819 11.131 17.5676 12.2297 11.0214 9.28144C4.30628 6.25507 5.9781 0.594724 6.15279 0.0590062C6.16151 0.0317453 6.16773 0.0168762 6.16773 0.0168762C6.02333 2.38485 7.35863 5.33316 16.6987 7.56029C27.0583 10.0295 26.8749 17.6625 26.2192 21.168Z" fill="url(#paint2_linear)"/>
<path d="M26.2192 21.1679C26.2192 21.1679 23.9337 16.6686 16.1846 14.5914C5.97809 11.8554 2.78466 8.82324 6.15279 0.0588684C5.9781 0.594586 4.30627 6.25493 11.0214 9.2813C17.5676 12.2296 24.3818 11.1309 26.2192 21.1679Z" fill="url(#paint3_linear)"/>
<path d="M18.1008 37.9645C20.2116 31.4719 13.0002 29.9333 7.04035 28.0056C1.23938 26.1287 0.572144 20.4176 0.572144 20.4176C3.62118 25.3563 9.61717 24.4972 15.8032 27.9098C20.1303 30.2955 19.8058 35.8092 18.1008 37.9645Z" fill="url(#paint4_linear)"/>
<path d="M18.1008 37.9645C18.1278 36.7791 18.4344 34.4982 8.7035 32.3281C-1.10005 30.1398 0.572191 20.4176 0.572191 20.4176C0.572191 20.4176 1.23943 26.1287 7.04039 28.0056C13.0003 29.9333 20.2117 31.4719 18.1008 37.9645Z" fill="url(#paint5_linear)"/>
<defs>
<linearGradient id="paint0_linear" x1="-0.662887" y1="22.7341" x2="26.5104" y2="26.0676" gradientUnits="userSpaceOnUse">
<stop stop-color="#E8E854"/>
<stop offset="0.380392" stop-color="#82C801"/>
<stop offset="0.980392" stop-color="#146A25"/>
<stop offset="1" stop-color="#146A25"/>
</linearGradient>
<linearGradient id="paint1_linear" x1="0.0323395" y1="19.7154" x2="22.6773" y2="19.7154" gradientUnits="userSpaceOnUse">
<stop stop-color="#DDDF50"/>
<stop offset="0.380392" stop-color="#78B833"/>
<stop offset="0.980392" stop-color="#276634"/>
<stop offset="1" stop-color="#276634"/>
</linearGradient>
<linearGradient id="paint2_linear" x1="10.6031" y1="0.724419" x2="21.4446" y2="20.1552" gradientUnits="userSpaceOnUse">
<stop stop-color="#D2E2E7"/>
<stop offset="0.380392" stop-color="#6AC4CD"/>
<stop offset="0.988235" stop-color="#234758"/>
<stop offset="1" stop-color="#234758"/>
</linearGradient>
<linearGradient id="paint3_linear" x1="2.50623" y1="1.59911" x2="26.4592" y2="18.3162" gradientUnits="userSpaceOnUse">
<stop stop-color="#D2E2E7"/>
<stop offset="0.278431" stop-color="#6AC4CD"/>
<stop offset="0.988235" stop-color="#114254"/>
<stop offset="1" stop-color="#114254"/>
</linearGradient>
<linearGradient id="paint4_linear" x1="-1.38106" y1="24.4913" x2="16.6957" y2="33.4172" gradientUnits="userSpaceOnUse">
<stop stop-color="#FAE013"/>
<stop offset="0.0313725" stop-color="#FAE013"/>
<stop offset="0.580392" stop-color="#F17E00"/>
<stop offset="0.988235" stop-color="#D04001"/>
<stop offset="1" stop-color="#CC4621"/>
<stop offset="1" stop-color="#D04001"/>
</linearGradient>
<linearGradient id="paint5_linear" x1="0.463889" y1="29.191" x2="18.45" y2="28.8807" gradientUnits="userSpaceOnUse">
<stop stop-color="#FFED00"/>
<stop offset="0.0313725" stop-color="#FFED00"/>
<stop offset="0.580392" stop-color="#EF7F1A"/>
<stop offset="0.988235" stop-color="#CC4621"/>
<stop offset="1" stop-color="#CC4621"/>
</linearGradient>
</defs>
</svg>
